<svg xmlns="http://www.w3.org/2000/svg" viewBox="0 0 100 100" width="100" height="100">
  <!-- Document base -->
  <path d="M15 8 L70 8 L85 23 L85 92 L15 92 Z" fill="#F5F5F5" stroke="#E0E0E0" stroke-width="1"/>
  <path d="M70 8 L70 23 L85 23" fill="#E0E0E0"/>

  <!-- Invoice lines -->
  <rect x="22" y="20" width="35" height="4" rx="1" fill="#BDBDBD"/>
  <rect x="22" y="30" width="50" height="2" rx="1" fill="#E0E0E0"/>
  <rect x="22" y="36" width="45" height="2" rx="1" fill="#E0E0E0"/>
  <rect x="22" y="42" width="48" height="2" rx="1" fill="#E0E0E0"/>

  <!-- Divider line -->
  <rect x="22" y="52" width="55" height="1" fill="#BDBDBD"/>

  <!-- QR Bill section -->
  <rect x="22" y="58" width="55" height="28" rx="2" fill="white" stroke="#FF8B24" stroke-width="1.5"/>

  <!-- Mini QR code -->
  <rect x="26" y="62" width="8" height="8" rx="1" fill="#FF8B24"/>
  <rect x="27.5" y="63.5" width="5" height="5" rx="0.5" fill="white"/>
  <rect x="29" y="65" width="2" height="2" fill="#FF8B24"/>

  <rect x="36" y="62" width="8" height="8" rx="1" fill="#FF8B24"/>
  <rect x="37.5" y="63.5" width="5" height="5" rx="0.5" fill="white"/>
  <rect x="39" y="65" width="2" height="2" fill="#FF8B24"/>

  <rect x="26" y="72" width="8" height="8" rx="1" fill="#FF8B24"/>
  <rect x="27.5" y="73.5" width="5" height="5" rx="0.5" fill="white"/>
  <rect x="29" y="75" width="2" height="2" fill="#FF8B24"/>

  <!-- Swiss cross badge -->
  <circle cx="68" cy="72" r="8" fill="#E53935"/>
  <rect x="66" y="66" width="4" height="12" fill="white"/>
  <rect x="62" y="70" width="12" height="4" fill="white"/>
</svg>
